<svg width="500" height="500" viewBox="0 0 500 500" fill="none" xmlns="http://www.w3.org/2000/svg">
<rect width="500" height="500" rx="75" fill="#3C82F7"/>
<path d="M341.158 295.333H203.658C193.003 295.333 187.675 295.333 183.303 296.505C171.441 299.683 162.175 308.949 158.996 320.811C158.485 322.72 158.197 324.81 158.035 327.446M212.833 364.083H313.667C323.293 364.083 328.106 364.083 331.782 362.21C335.016 360.562 337.646 357.933 339.293 354.699C341.167 351.022 341.167 346.209 341.167 336.583V162.417C341.167 152.791 341.167 147.978 339.293 144.301C337.646 141.067 335.016 138.438 331.782 136.79C328.106 134.917 323.293 134.917 313.667 134.917H212.833C193.582 134.917 183.956 134.917 176.602 138.663C170.134 141.959 164.876 147.218 161.58 153.686C157.833 161.039 157.833 170.665 157.833 189.917V309.083C157.833 328.335 157.833 337.961 161.58 345.314C164.876 351.782 170.134 357.041 176.602 360.337C183.956 364.083 193.582 364.083 212.833 364.083ZM226.583 134.917H295.915V220.993C295.915 226.535 295.915 229.306 294.759 230.838C293.752 232.172 292.212 233 290.543 233.104C288.628 233.224 286.316 231.696 281.693 228.64L266.304 218.467C264.476 217.258 263.563 216.654 262.576 216.419C261.704 216.212 260.795 216.212 259.923 216.419C258.936 216.654 258.022 217.258 256.194 218.467L240.805 228.64C236.182 231.696 233.871 233.224 231.955 233.104C230.287 233 228.747 232.172 227.739 230.838C226.583 229.306 226.583 226.535 226.583 220.993V134.917Z" stroke="white" stroke-width="22.9167" stroke-linecap="round"/>
</svg>
